<?xml version="1.0" encoding="UTF-8"?>
<!DOCTYPE svg PUBLIC "-//W3C//DTD SVG 1.1//EN" "http://www.w3.org/Graphics/SVG/1.1/DTD/svg11.dtd">
<svg xmlns="http://www.w3.org/2000/svg" version="1.1" width="1092px" height="1024px" style="shape-rendering:geometricPrecision; text-rendering:geometricPrecision; image-rendering:optimizeQuality; fill-rule:evenodd; clip-rule:evenodd" xmlns:xlink="http://www.w3.org/1999/xlink">
<g><path style="opacity:0.998" fill="#7f8890" d="M 722.5,-0.5 C 728.167,-0.5 733.833,-0.5 739.5,-0.5C 779.502,20.0037 819.502,40.8371 859.5,62C 874.782,70.6158 888.949,80.7825 902,92.5C 905.499,96.8269 908.499,101.494 911,106.5C 912.506,111.746 912.839,117.079 912,122.5C 909.883,128.736 907.216,134.736 904,140.5C 897.028,151.447 890.861,162.781 885.5,174.5C 662.598,173.167 439.598,173.167 216.5,174.5C 212.151,159.803 205.651,146.137 197,133.5C 191.506,120.895 192.506,108.895 200,97.5C 206.5,89.6667 213.667,82.5 221.5,76C 256.932,49.6054 294.932,27.2721 335.5,9C 345.177,5.10762 355.177,2.44095 365.5,1C 379.967,-0.517563 391.467,4.6491 400,16.5C 411.594,35.102 425.094,52.2687 440.5,68C 459.849,83.6712 481.849,94.0045 506.5,99C 556.872,108.595 604.205,100.262 648.5,74C 662.27,64.5623 674.437,53.3957 685,40.5C 691.611,30.2235 698.611,20.2235 706,10.5C 710.688,5.42058 716.188,1.75391 722.5,-0.5 Z"/></g>
<g><path style="opacity:0.999" fill="#7d868e" d="M 885.5,174.5 C 879.986,190.467 877.986,206.8 879.5,223.5C 660.5,223.5 441.5,223.5 222.5,223.5C 222.382,206.89 220.382,190.557 216.5,174.5C 439.598,173.167 662.598,173.167 885.5,174.5 Z"/></g>
<g><path style="opacity:0.999" fill="#7b858d" d="M 222.5,223.5 C 441.5,223.5 660.5,223.5 879.5,223.5C 881.418,246.839 887.252,269.173 897,290.5C 901.512,300.188 906.012,309.855 910.5,319.5C 854.997,319.168 799.664,319.501 744.5,320.5C 742.833,319.167 741.167,317.833 739.5,316.5C 680.032,260.057 609.032,234.557 526.5,240C 463.052,246.731 408.718,272.231 363.5,316.5C 361.833,317.833 360.167,319.167 358.5,320.5C 301.669,319.501 244.669,319.168 187.5,319.5C 202.913,297.666 213.746,273.666 220,247.5C 221.492,239.564 222.325,231.564 222.5,223.5 Z"/></g>
<g><path style="opacity:1" fill="#c8cfd2" d="M 739.5,316.5 C 614.167,316.5 488.833,316.5 363.5,316.5C 408.718,272.231 463.052,246.731 526.5,240C 609.032,234.557 680.032,260.057 739.5,316.5 Z"/></g>
<g><path style="opacity:1" fill="#ccd2d5" d="M 363.5,316.5 C 488.833,316.5 614.167,316.5 739.5,316.5C 741.167,317.833 742.833,319.167 744.5,320.5C 752.922,329.252 760.589,338.585 767.5,348.5C 724.663,348.168 681.997,348.501 639.5,349.5C 632.193,346.181 624.859,342.848 617.5,339.5C 595.008,330.736 571.675,326.736 547.5,327.5C 517.603,327.641 489.603,334.974 463.5,349.5C 420.67,348.501 377.67,348.168 334.5,348.5C 342.026,338.794 350.026,329.461 358.5,320.5C 360.167,319.167 361.833,317.833 363.5,316.5 Z"/></g>
<g><path style="opacity:0.997" fill="#78818a" d="M 187.5,319.5 C 244.669,319.168 301.669,319.501 358.5,320.5C 350.026,329.461 342.026,338.794 334.5,348.5C 315.691,373.782 301.358,401.449 291.5,431.5C 197.598,430.831 103.598,430.164 9.5,429.5C 11.5938,417.383 15.7604,406.05 22,395.5C 25.9902,390.421 31.1569,387.255 37.5,386C 101.138,393.868 151.138,371.702 187.5,319.5 Z"/></g>
<g><path style="opacity:0.997" fill="#77818a" d="M 910.5,319.5 C 915.559,327.27 920.392,335.27 925,343.5C 935.825,357.169 949.325,367.335 965.5,374C 994.798,386.991 1025.46,393.658 1057.5,394C 1068.8,394.898 1076.97,400.398 1082,410.5C 1084.96,416.869 1086.79,423.536 1087.5,430.5C 995.167,430.5 902.833,430.5 810.5,430.5C 800.875,400.578 786.541,373.245 767.5,348.5C 760.589,338.585 752.922,329.252 744.5,320.5C 799.664,319.501 854.997,319.168 910.5,319.5 Z"/></g>
<g><path style="opacity:1" fill="#0b5fab" d="M 547.5,327.5 C 571.675,326.736 595.008,330.736 617.5,339.5C 612.566,345.608 607.399,351.608 602,357.5C 532.667,430.167 463.333,502.833 394,575.5C 391.234,578.777 388.067,581.443 384.5,583.5C 377.17,566.517 372.17,548.851 369.5,530.5C 369.5,527.167 369.5,523.833 369.5,520.5C 369.337,518.143 369.503,515.81 370,513.5C 429.371,451.631 488.537,389.631 547.5,327.5 Z"/></g>
<g><path style="opacity:1" fill="#0d64b1" d="M 547.5,327.5 C 488.537,389.631 429.371,451.631 370,513.5C 369.503,515.81 369.337,518.143 369.5,520.5C 367.771,499.295 369.771,478.295 375.5,457.5C 391.104,410.28 420.437,374.28 463.5,349.5C 489.603,334.974 517.603,327.641 547.5,327.5 Z"/></g>
<g><path style="opacity:1" fill="#0b5ca5" d="M 617.5,339.5 C 624.859,342.848 632.193,346.181 639.5,349.5C 650.872,356.186 661.539,363.853 671.5,372.5C 664.59,377.904 658.09,383.904 652,390.5C 574.296,472.036 496.796,553.703 419.5,635.5C 409.29,624.736 400.29,613.069 392.5,600.5C 389.577,594.985 386.91,589.318 384.5,583.5C 388.067,581.443 391.234,578.777 394,575.5C 463.333,502.833 532.667,430.167 602,357.5C 607.399,351.608 612.566,345.608 617.5,339.5 Z"/></g>
<g><path style="opacity:1" fill="#0c589f" d="M 671.5,372.5 C 687.193,385.846 699.86,401.512 709.5,419.5C 708.883,419.389 708.383,419.056 708,418.5C 627.629,502.702 547.463,587.036 467.5,671.5C 461.205,668.686 455.205,665.353 449.5,661.5C 438.614,653.954 428.614,645.287 419.5,635.5C 496.796,553.703 574.296,472.036 652,390.5C 658.09,383.904 664.59,377.904 671.5,372.5 Z"/></g>
<g><path style="opacity:1" fill="#d3d8db" d="M 334.5,348.5 C 377.67,348.168 420.67,348.501 463.5,349.5C 420.437,374.28 391.104,410.28 375.5,457.5C 345.426,457.175 315.426,457.508 285.5,458.5C 287.342,449.465 289.342,440.465 291.5,431.5C 301.358,401.449 315.691,373.782 334.5,348.5 Z"/></g>
<g><path style="opacity:1" fill="#d3d8db" d="M 767.5,348.5 C 786.541,373.245 800.875,400.578 810.5,430.5C 812.348,439.558 814.348,448.558 816.5,457.5C 786.5,457.5 756.5,457.5 726.5,457.5C 722.427,444.029 716.761,431.363 709.5,419.5C 699.86,401.512 687.193,385.846 671.5,372.5C 661.539,363.853 650.872,356.186 639.5,349.5C 681.997,348.501 724.663,348.168 767.5,348.5 Z"/></g>
<g><path style="opacity:1" fill="#0e5499" d="M 709.5,419.5 C 716.761,431.363 722.427,444.029 726.5,457.5C 730.319,470.564 732.652,483.897 733.5,497.5C 732.686,495.369 732.186,493.036 732,490.5C 668.531,557.636 604.698,624.47 540.5,691C 547.492,691.5 554.492,691.666 561.5,691.5C 528.277,694.03 496.944,687.363 467.5,671.5C 547.463,587.036 627.629,502.702 708,418.5C 708.383,419.056 708.883,419.389 709.5,419.5 Z"/></g>
<g><path style="opacity:0.999" fill="#747e87" d="M 9.5,429.5 C 103.598,430.164 197.598,430.831 291.5,431.5C 289.342,440.465 287.342,449.465 285.5,458.5C 280.179,484.457 279.179,510.457 282.5,536.5C 283.797,554.587 287.13,572.254 292.5,589.5C 195.167,589.5 97.8333,589.5 0.5,589.5C 0.166667,589.5 -0.166667,589.5 -0.5,589.5C -0.5,567.833 -0.5,546.167 -0.5,524.5C 1.03945,492.779 4.37279,461.112 9.5,429.5 Z"/></g>
<g><path style="opacity:0.999" fill="#747e87" d="M 810.5,430.5 C 902.833,430.5 995.167,430.5 1087.5,430.5C 1089.34,439.865 1090.67,449.199 1091.5,458.5C 1091.5,483.833 1091.5,509.167 1091.5,534.5C 1089.97,552.93 1087.64,571.263 1084.5,589.5C 992.833,589.5 901.167,589.5 809.5,589.5C 815.35,570.251 819.016,550.585 820.5,530.5C 822.758,505.938 821.425,481.605 816.5,457.5C 814.348,448.558 812.348,439.558 810.5,430.5 Z"/></g>
<g><path style="opacity:1" fill="#dce1e3" d="M 375.5,457.5 C 369.771,478.295 367.771,499.295 369.5,520.5C 369.5,523.833 369.5,527.167 369.5,530.5C 340.5,530.5 311.5,530.5 282.5,530.5C 282.5,532.5 282.5,534.5 282.5,536.5C 279.179,510.457 280.179,484.457 285.5,458.5C 315.426,457.508 345.426,457.175 375.5,457.5 Z"/></g>
<g><path style="opacity:1" fill="#dce1e3" d="M 726.5,457.5 C 756.5,457.5 786.5,457.5 816.5,457.5C 821.425,481.605 822.758,505.938 820.5,530.5C 791.167,530.5 761.833,530.5 732.5,530.5C 733.351,519.523 733.684,508.523 733.5,497.5C 732.652,483.897 730.319,470.564 726.5,457.5 Z"/></g>
<g><path style="opacity:1" fill="#0f4f93" d="M 733.5,497.5 C 733.684,508.523 733.351,519.523 732.5,530.5C 729.394,555.368 721.727,578.702 709.5,600.5C 694.971,624.693 676.305,645.026 653.5,661.5C 625.596,679.69 594.93,689.69 561.5,691.5C 554.492,691.666 547.492,691.5 540.5,691C 604.698,624.47 668.531,557.636 732,490.5C 732.186,493.036 732.686,495.369 733.5,497.5 Z"/></g>
<g><path style="opacity:1" fill="#e3e8ea" d="M 369.5,530.5 C 372.17,548.851 377.17,566.517 384.5,583.5C 386.91,589.318 389.577,594.985 392.5,600.5C 360.662,600.168 328.996,600.502 297.5,601.5C 295.833,597.5 294.167,593.5 292.5,589.5C 287.13,572.254 283.797,554.587 282.5,536.5C 282.5,534.5 282.5,532.5 282.5,530.5C 311.5,530.5 340.5,530.5 369.5,530.5 Z"/></g>
<g><path style="opacity:1" fill="#e4e8ea" d="M 732.5,530.5 C 761.833,530.5 791.167,530.5 820.5,530.5C 819.016,550.585 815.35,570.251 809.5,589.5C 808.167,593.167 806.833,596.833 805.5,600.5C 773.5,600.5 741.5,600.5 709.5,600.5C 721.727,578.702 729.394,555.368 732.5,530.5 Z"/></g>
<g><path style="opacity:0.997" fill="#707b84" d="M 0.5,589.5 C 97.8333,589.5 195.167,589.5 292.5,589.5C 294.167,593.5 295.833,597.5 297.5,601.5C 304.709,623.254 315.042,643.254 328.5,661.5C 331.663,667.152 335.33,672.485 339.5,677.5C 285.5,677.5 231.5,677.5 177.5,677.5C 165.992,664.5 152.325,654.333 136.5,647C 125.616,642.058 114.616,637.391 103.5,633C 94.3739,630.201 85.0406,629.035 75.5,629.5C 60.4489,630.286 45.4489,631.62 30.5,633.5C 18.7806,634.894 10.6139,630.227 6,619.5C 2.35656,609.828 0.523227,599.828 0.5,589.5 Z"/></g>
<g><path style="opacity:0.999" fill="#707b84" d="M 809.5,589.5 C 901.167,589.5 992.833,589.5 1084.5,589.5C 1083.08,604.517 1078.58,618.517 1071,631.5C 1065.29,638.297 1057.96,641.63 1049,641.5C 1036.51,640.026 1024.01,638.693 1011.5,637.5C 992.426,638.247 975.092,644.08 959.5,655C 950.314,662.358 941.647,670.191 933.5,678.5C 877.002,677.501 820.336,677.168 763.5,677.5C 766.807,672.518 770.141,667.518 773.5,662.5C 787.286,643.598 797.953,622.932 805.5,600.5C 806.833,596.833 808.167,593.167 809.5,589.5 Z"/></g>
<g><path style="opacity:1" fill="#eaedef" d="M 392.5,600.5 C 400.29,613.069 409.29,624.736 419.5,635.5C 428.614,645.287 438.614,653.954 449.5,661.5C 409.167,661.5 368.833,661.5 328.5,661.5C 315.042,643.254 304.709,623.254 297.5,601.5C 328.996,600.502 360.662,600.168 392.5,600.5 Z"/></g>
<g><path style="opacity:1" fill="#eaedef" d="M 709.5,600.5 C 741.5,600.5 773.5,600.5 805.5,600.5C 797.953,622.932 787.286,643.598 773.5,662.5C 733.67,661.501 693.67,661.168 653.5,661.5C 676.305,645.026 694.971,624.693 709.5,600.5 Z"/></g>
<g><path style="opacity:0.999" fill="#6d7881" d="M 177.5,677.5 C 231.5,677.5 285.5,677.5 339.5,677.5C 352.844,694.511 368.178,709.511 385.5,722.5C 452.066,773.637 526.733,790.803 609.5,774C 649.258,764.784 684.924,747.617 716.5,722.5C 733.768,709.234 749.434,694.234 763.5,677.5C 820.336,677.168 877.002,677.501 933.5,678.5C 914.33,699.855 898.497,723.521 886,749.5C 879.101,773.085 878.935,796.752 885.5,820.5C 667.736,821.833 450.069,821.833 232.5,820.5C 233.27,797.247 229.103,774.914 220,753.5C 209.144,726.103 194.978,700.769 177.5,677.5 Z"/></g>
<g><path style="opacity:1" fill="#f0f3f4" d="M 328.5,661.5 C 368.833,661.5 409.167,661.5 449.5,661.5C 455.205,665.353 461.205,668.686 467.5,671.5C 496.944,687.363 528.277,694.03 561.5,691.5C 594.93,689.69 625.596,679.69 653.5,661.5C 693.67,661.168 733.67,661.501 773.5,662.5C 770.141,667.518 766.807,672.518 763.5,677.5C 749.434,694.234 733.768,709.234 716.5,722.5C 606.167,721.167 495.833,721.167 385.5,722.5C 368.178,709.511 352.844,694.511 339.5,677.5C 335.33,672.485 331.663,667.152 328.5,661.5 Z"/></g>
<g><path style="opacity:1" fill="#f5f7f8" d="M 716.5,722.5 C 684.924,747.617 649.258,764.784 609.5,774C 526.733,790.803 452.066,773.637 385.5,722.5C 495.833,721.167 606.167,721.167 716.5,722.5 Z"/></g>
<g><path style="opacity:0.997" fill="#68747e" d="M 232.5,820.5 C 450.069,821.833 667.736,821.833 885.5,820.5C 893.43,848.458 901.263,876.458 909,904.5C 909.867,909.697 909.2,914.697 907,919.5C 898.686,934.485 887.519,946.985 873.5,957C 862.837,965.003 851.503,972.003 839.5,978C 811.456,992.349 782.79,1005.35 753.5,1017C 746.079,1019.31 738.746,1021.48 731.5,1023.5C 723.833,1023.5 716.167,1023.5 708.5,1023.5C 702.162,1020.9 697.329,1016.57 694,1010.5C 688.784,994.851 682.784,979.518 676,964.5C 661.625,942.371 641.458,928.204 615.5,922C 577.458,912.83 539.125,911.163 500.5,917C 484.011,922.241 469.344,930.574 456.5,942C 442.254,956.908 428.754,972.408 416,988.5C 405.53,1000.8 393.03,1010.3 378.5,1017C 356.822,1022.78 335.822,1020.78 315.5,1011C 279.423,992.571 245.756,970.571 214.5,945C 208.667,939.167 202.833,933.333 197,927.5C 191.198,920.726 187.698,912.893 186.5,904C 187.055,898.387 188.889,893.221 192,888.5C 203.094,876.076 213.428,863.076 223,849.5C 227.51,840.14 230.676,830.474 232.5,820.5 Z"/></g>
</svg>
